REM DIRINDEX 1\2\6,1\2\7,1\2\8,1\2\9,1\3\10,1\3\11,1\4\12,1\4\13,1\4\14,1\5\15,1\5\16,1\5\17
REM DIRNAME cjc029,folder01,folder02,folder03,folder04,folder05,folder06,folder07,folder08,folder09,folder10,folder11,folder12,folder13,folder14,folder15,folder16
TITLE ""
FILE "1400_2_sec10_0933_0949.mp3" MP3
  TRACK 01 AUDIO
    TITLE "0:"
    INDEX 01 00:00:00
  TRACK 02 AUDIO
    TITLE "13:cjc029_3470"
    INDEX 01 00:00:17
  TRACK 03 AUDIO
    TITLE "0:"
    INDEX 01 00:01:44
  TRACK 04 AUDIO
    TITLE "14:cjc029_3471"
    INDEX 01 00:01:48
  TRACK 05 AUDIO
    TITLE "0:"
    INDEX 01 00:04:23
  TRACK 06 AUDIO
    TITLE "13:cjc029_3472"
    INDEX 01 00:05:07
  TRACK 07 AUDIO
    TITLE "0:"
    INDEX 01 00:06:55
  TRACK 08 AUDIO
    TITLE "14:cjc029_3473"
    INDEX 01 00:06:63
  TRACK 09 AUDIO
    TITLE "0:"
    INDEX 01 00:10:10
  TRACK 10 AUDIO
    TITLE "13:cjc029_3474"
    INDEX 01 00:10:68
  TRACK 11 AUDIO
    TITLE "0:"
    INDEX 01 00:12:05
  TRACK 12 AUDIO
    TITLE "14:cjc029_3475"
    INDEX 01 00:12:11
  TRACK 13 AUDIO
    TITLE "0:"
    INDEX 01 00:18:07
  TRACK 14 AUDIO
    TITLE "13:cjc029_3476"
    INDEX 01 00:19:01
  TRACK 15 AUDIO
    TITLE "0:"
    INDEX 01 00:20:28
  TRACK 16 AUDIO
    TITLE "14:cjc029_3477"
    INDEX 01 00:20:34
  TRACK 17 AUDIO
    TITLE "0:"
    INDEX 01 00:23:50
  TRACK 18 AUDIO
    TITLE "13:cjc029_3478"
    INDEX 01 00:24:33
  TRACK 19 AUDIO
    TITLE "0:"
    INDEX 01 00:25:50
  TRACK 20 AUDIO
    TITLE "14:cjc029_3479"
    INDEX 01 00:25:54
  TRACK 21 AUDIO
    TITLE "0:"
    INDEX 01 00:28:31
  TRACK 22 AUDIO
    TITLE "13:cjc029_3480"
    INDEX 01 00:29:15
  TRACK 23 AUDIO
    TITLE "0:"
    INDEX 01 00:30:46
  TRACK 24 AUDIO
    TITLE "14:cjc029_3481"
    INDEX 01 00:30:50
  TRACK 25 AUDIO
    TITLE "0:"
    INDEX 01 00:32:00
  TRACK 26 AUDIO
    TITLE "13:cjc029_3482"
    INDEX 01 00:32:54
  TRACK 27 AUDIO
    TITLE "0:"
    INDEX 01 00:33:64
  TRACK 28 AUDIO
    TITLE "14:cjc029_3483"
    INDEX 01 00:33:73
  TRACK 29 AUDIO
    TITLE "0:"
    INDEX 01 00:35:23
  TRACK 30 AUDIO
    TITLE "13:cjc029_3484"
    INDEX 01 00:36:05
  TRACK 31 AUDIO
    TITLE "0:"
    INDEX 01 00:37:01
  TRACK 32 AUDIO
    TITLE "14:cjc029_3485"
    INDEX 01 00:37:05
  TRACK 33 AUDIO
    TITLE "0:"
    INDEX 01 00:40:50
  TRACK 34 AUDIO
    TITLE "13:cjc029_3486"
    INDEX 01 00:41:30
  TRACK 35 AUDIO
    TITLE "0:"
    INDEX 01 00:42:53
  TRACK 36 AUDIO
    TITLE "14:cjc029_3487"
    INDEX 01 00:42:55
  TRACK 37 AUDIO
    TITLE "0:"
    INDEX 01 00:43:64
  TRACK 38 AUDIO
    TITLE "13:cjc029_3488"
    INDEX 01 00:44:46
  TRACK 39 AUDIO
    TITLE "0:"
    INDEX 01 00:45:61
  TRACK 40 AUDIO
    TITLE "14:cjc029_3489"
    INDEX 01 00:45:69
  TRACK 41 AUDIO
    TITLE "0:"
    INDEX 01 00:48:67
  TRACK 42 AUDIO
    TITLE "12:cjc029_3490"
    INDEX 01 00:50:42
  TRACK 43 AUDIO
    TITLE "0:"
    INDEX 01 00:51:73
  TRACK 44 AUDIO
    TITLE "13:cjc029_3491"
    INDEX 01 00:53:02
  TRACK 45 AUDIO
    TITLE "0:"
    INDEX 01 00:54:17
  TRACK 46 AUDIO
    TITLE "14:cjc029_3492"
    INDEX 01 00:54:25
  TRACK 47 AUDIO
    TITLE "0:"
    INDEX 01 00:56:49
  TRACK 48 AUDIO
    TITLE "13:cjc029_3493"
    INDEX 01 00:57:31
  TRACK 49 AUDIO
    TITLE "0:"
    INDEX 01 00:58:64
  TRACK 50 AUDIO
    TITLE "14:cjc029_3494"
    INDEX 01 00:58:67
  TRACK 51 AUDIO
    TITLE "0:"
    INDEX 01 01:01:29
  TRACK 52 AUDIO
    TITLE "13:cjc029_3495"
    INDEX 01 01:02:18
  TRACK 53 AUDIO
    TITLE "0:"
    INDEX 01 01:03:20
  TRACK 54 AUDIO
    TITLE "14:cjc029_3496"
    INDEX 01 01:03:24
  TRACK 55 AUDIO
    TITLE "0:"
    INDEX 01 01:06:55
  TRACK 56 AUDIO
    TITLE "13:cjc029_3497"
    INDEX 01 01:07:37
  TRACK 57 AUDIO
    TITLE "0:"
    INDEX 01 01:08:46
  TRACK 58 AUDIO
    TITLE "14:cjc029_3498"
    INDEX 01 01:08:52
  TRACK 59 AUDIO
    TITLE "0:"
    INDEX 01 01:12:32
  TRACK 60 AUDIO
    TITLE "13:cjc029_3499"
    INDEX 01 01:13:14
  TRACK 61 AUDIO
    TITLE "0:"
    INDEX 01 01:14:25
  TRACK 62 AUDIO
    TITLE "14:cjc029_3500"
    INDEX 01 01:14:31
  TRACK 63 AUDIO
    TITLE "0:"
    INDEX 01 01:16:50
  TRACK 64 AUDIO
    TITLE "13:cjc029_3501"
    INDEX 01 01:17:30
  TRACK 65 AUDIO
    TITLE "0:"
    INDEX 01 01:18:49
  TRACK 66 AUDIO
    TITLE "14:cjc029_3502"
    INDEX 01 01:18:53
  TRACK 67 AUDIO
    TITLE "0:"
    INDEX 01 01:22:17
  TRACK 68 AUDIO
    TITLE "13:cjc029_3503"
    INDEX 01 01:22:74
  TRACK 69 AUDIO
    TITLE "0:"
    INDEX 01 01:24:08
  TRACK 70 AUDIO
    TITLE "14:cjc029_3504"
    INDEX 01 01:24:14
  TRACK 71 AUDIO
    TITLE "0:"
    INDEX 01 01:27:04
